<?xml version="1.0" encoding="utf-8"?>
<!-- Generator: Adobe Illustrator 22.1.0, SVG Export Plug-In . SVG Version: 6.00 Build 0)  -->
<svg version="1.1" id="Capa_1" xmlns="http://www.w3.org/2000/svg" xmlns:xlink="http://www.w3.org/1999/xlink" x="0px" y="0px"
	 viewBox="0 0 480.1 480.1" style="enable-background:new 0 0 480.1 480.1;" xml:space="preserve">
<style type="text/css">
	.st0{fill:#1EAEDB;}
</style>
<g>
	<g>
		<path class="st0" d="M240.1,0.1c-96,0-182.9,57.2-220.7,145.5l-3,1l1.2,3.5C-32.1,272.8,27,412.7,149.8,462.5
			c28.7,11.6,59.3,17.6,90.3,17.6c132.5,0,240-107.4,240-240S372.7,0.1,240.1,0.1z M428.4,361.1l-12.3-12.3V320
			c0-1.2-0.3-2.5-0.8-3.6l-31.2-62.3v-30.1c0-2.7-1.3-5.2-3.6-6.7l-24-16c-1.9-1.3-4.2-1.7-6.4-1.1l-29.4,7.3l-49.4-21.2l-6.8-47.6
			l18.8-18.8h40.4l13.6,20.4c1.2,1.8,3.2,3.1,5.3,3.4l48,8c1.3,0.2,2.6,0.1,3.8-0.3l44.2-14.7C475.9,208.1,471.9,293.6,428.4,361.1z
			 M395.4,78.9l-13,8.7l-36.3-7.3l-23.5-7.8c-1.4-0.5-3-0.6-4.5-0.2l-29.7,7.4l-13-4.3L285,56h27.1c1.2,0,2.5-0.3,3.6-0.8l27.7-13.8
			C362.4,51.3,379.9,64,395.4,78.9z M152.4,33.9l19.2,12.8c0.9,0.6,2,1,3.1,1.2l38.8,6.5l-3.8,11.3l-20.2,6.7
			c-1.8,0.6-3.3,1.8-4.3,3.5l-23,38.3l-36.9,22.1l-54.4,7.8c-3.9,0.6-6.9,3.9-6.9,7.9v24c0,2.1,0.8,4.2,2.3,5.7l13.7,13.7v13.7
			l-33.3-22.2l-12.1-36.2C57.7,98.2,99.8,56.5,152.4,33.9z M129.7,296.2L93.5,289l-13.4-26.8v-18.8l29.8-29.8l11,22.1
			c1.4,2.7,4.1,4.4,7.2,4.4h51.5l21.7,36.1c1.4,2.4,4,3.9,6.9,3.9h22.2l-5.6,28.1l-30.3,30.3c-1.5,1.5-2.3,3.5-2.4,5.7v20
			l-28.8,21.6c-2,1.5-3.2,3.9-3.2,6.4v28.9l-10-3.3l-14-35.1V304C136.1,300.2,133.4,297,129.7,296.2z M105.6,419.2
			C30.2,362.6-1.7,264.8,25.8,174.6l6.6,19.9c0.6,1.7,1.7,3.1,3.1,4.1l39.9,26.6l-9.1,9.1c-1.5,1.5-2.3,3.5-2.3,5.7v24
			c0,1.2,0.3,2.5,0.8,3.6l16,32c1.1,2.2,3.2,3.8,5.6,4.3l33.6,6.7v73.4c0,1,0.2,2,0.6,3l16,40c0.9,2.2,2.7,3.9,4.9,4.6l24,8
			c0.8,0.3,1.6,0.4,2.5,0.4c4.4,0,8-3.6,8-8v-36l28.8-21.6c2-1.5,3.2-3.9,3.2-6.4v-20.7l29.7-29.7c1.1-1.1,1.9-2.5,2.2-4.1l8-40
			c0.9-4.3-1.9-8.5-6.3-9.4c-0.5-0.1-1-0.2-1.6-0.2h-27.5l-21.7-36.1c-1.4-2.4-4-3.9-6.9-3.9H133l-13.7-27.6
			c-1.2-2.3-3.3-3.9-5.9-4.3c-2.5-0.4-5.1,0.4-6.9,2.2l-10.4,10.3v-12.7c0-2.1-0.8-4.2-2.3-5.7l-13.7-13.7V159l49.1-7
			c1.1-0.2,2.1-0.5,3-1.1l40-24c1.1-0.7,2.1-1.6,2.7-2.7l22.5-37.5l21.2-7.1c2.4-0.8,4.3-2.7,5.1-5.1l8-24c1.4-4.2-0.9-8.7-5.1-10.1
			c-0.4-0.1-0.8-0.2-1.2-0.3l-46.3-7.7l-8.1-5.4c50.3-16.4,104.9-14.4,153.9,5.7L310.2,40h-30.1c-3,0-5.8,1.7-7.2,4.4l-16,32
			c-2,4-0.4,8.8,3.6,10.7c0.3,0.2,0.7,0.3,1,0.4l24,8c1.4,0.5,3,0.6,4.5,0.2l29.7-7.4l21.8,7.3c0.3,0.1,0.6,0.2,1,0.3l40,8
			c2.1,0.4,4.2,0,6-1.2l18.2-12.1c9,10,17,20.7,24.1,32.2l-39.4,13.1l-42.6-7.1l-14.1-21.1c-1.5-2.2-4-3.5-6.6-3.6h-48
			c-2.1,0-4.2,0.8-5.7,2.3l-24,24c-1.8,1.8-2.6,4.3-2.3,6.8l8,56c0.4,2.8,2.2,5.1,4.8,6.2l56,24c1.6,0.7,3.4,0.8,5.1,0.4l28.6-7.1
			l17.5,11.7v27.7c0,1.2,0.3,2.5,0.8,3.6l31.2,62.3v30.1c0,2.1,0.8,4.2,2.3,5.7l16.7,16.7C344.9,473.4,204.5,493.4,105.6,419.2z"/>
	</g>
</g>
</svg>
