<?xml version="1.0" encoding="utf-8"?>
<!-- Generator: Adobe Illustrator 22.1.0, SVG Export Plug-In . SVG Version: 6.00 Build 0)  -->
<svg version="1.1" id="Capa_1" xmlns="http://www.w3.org/2000/svg" xmlns:xlink="http://www.w3.org/1999/xlink" x="0px" y="0px"
	 viewBox="0 0 58 58" style="enable-background:new 0 0 58 58;" xml:space="preserve">
<style type="text/css">
	.st0{fill:#1EAEDB;}
</style>
<path class="st0" d="M50.7,48.2C55.2,43.1,58,36.4,58,29c0-7.7-3-14.6-7.9-19.8v0c0,0,0,0,0,0C45,3.8,37.9,0.3,30,0l0,0l-0.6,0
	c-0.1,0-0.3,0-0.4,0s-0.3,0-0.4,0L28,0l0,0C20.1,0.3,13,3.8,7.9,9.2c0,0,0,0,0,0c0,0,0,0,0,0C3,14.4,0,21.3,0,29
	c0,7.4,2.8,14.1,7.3,19.2c0,0,0,0,0,0c0,0,0,0,0.1,0.1C12.5,54,19.8,57.7,28,58l0,0l0.6,0c0.1,0,0.3,0,0.4,0s0.3,0,0.4,0l0.6,0l0,0
	C38.2,57.7,45.5,54,50.7,48.2C50.6,48.3,50.7,48.3,50.7,48.2C50.7,48.2,50.7,48.2,50.7,48.2z M2,30h12c0.1,4.2,0.9,8.4,2.4,12.2
	c-2.8,1-5.6,2.4-8.1,4.1C4.6,41.9,2.3,36.2,2,30z M8.9,11c2.5,1.6,5.1,2.9,7.9,3.9C15.1,19,14.1,23.4,14,28H2
	C2.3,21.5,4.8,15.6,8.9,11z M56,28H44c-0.1-4.6-1.1-9-2.8-13.1c2.8-1,5.4-2.3,7.9-3.9C53.2,15.6,55.7,21.5,56,28z M28,15
	c-2.9-0.1-5.7-0.5-8.5-1.3c2-4.2,4.9-7.9,8.5-11V15z M28,17v11H16c0.1-4.3,1-8.6,2.7-12.5C21.7,16.4,24.8,16.9,28,17z M30,17
	c3.2-0.1,6.3-0.6,9.3-1.4c1.6,3.9,2.5,8.1,2.7,12.5H30V17z M30,15V2.6c3.6,3.1,6.4,6.9,8.5,11C35.7,14.4,32.9,14.9,30,15z
	 M40.4,13.1c-1.9-4-4.6-7.7-7.9-10.8C38.4,3,43.6,5.7,47.7,9.6C45.4,11,43,12.2,40.4,13.1z M17.6,13.1c-2.5-0.9-5-2.1-7.3-3.5
	c4.1-3.9,9.3-6.6,15.2-7.3C22.2,5.4,19.5,9,17.6,13.1z M16,30h12v10c-3.3,0.1-6.5,0.6-9.7,1.5C16.9,37.9,16.1,34,16,30z M28,42v13.3
	c-3.8-3.3-6.8-7.4-8.9-11.9C22,42.6,25,42.1,28,42z M30,55.4V42c3,0.1,6,0.6,8.9,1.4C36.8,47.9,33.8,52,30,55.4z M30,40V30h12
	c-0.1,4-0.9,7.9-2.3,11.6C36.5,40.6,33.3,40.1,30,40z M44,30h12c-0.2,6.2-2.6,11.9-6.3,16.3c-2.5-1.7-5.3-3.1-8.1-4.1
	C43,38.4,43.9,34.2,44,30z M9.7,47.8c2.4-1.6,4.9-2.8,7.5-3.8c1.9,4.4,4.7,8.3,8.3,11.7C19.3,55,13.8,52.1,9.7,47.8z M32.5,55.8
	c3.5-3.4,6.3-7.3,8.3-11.7c2.6,0.9,5.2,2.2,7.5,3.8C44.2,52.1,38.7,55,32.5,55.8z"/>
</svg>
